<svg xmlns="http://www.w3.org/2000/svg" viewBox="0 0 100 100" width="100" height="100">
  <!-- Green leaf / plant stem -->
  <path d="M50 85 C50 85 30 70 28 50 C26 32 38 18 50 15 C50 15 50 85 50 85 Z" fill="#2ecc71" opacity="0.9"/>
  <!-- Red figure / body -->
  <path d="M50 85 C50 85 70 70 72 50 C74 32 62 18 50 15 C50 15 50 85 50 85 Z" fill="#e74c3c" opacity="0.9"/>
  <!-- Green left arm -->
  <path d="M50 45 C50 45 20 38 18 28 C16 20 28 14 35 20 C35 20 50 45 50 45 Z" fill="#27ae60"/>
  <!-- Red right arm -->
  <path d="M50 45 C50 45 80 38 82 28 C84 20 72 14 65 20 C65 20 50 45 50 45 Z" fill="#c0392b"/>
  <!-- White center line -->
  <line x1="50" y1="15" x2="50" y2="85" stroke="white" stroke-width="1.5" opacity="0.4"/>
</svg>